<svg width="180" height="183" viewBox="0 0 180 183" fill="none" xmlns="http://www.w3.org/2000/svg">
<path d="M79.1483 3.19766C96.0889 -3.1072 115.128 0.0458088 129.095 11.469L161.547 38.0121C175.513 49.4353 182.284 67.3932 179.31 85.1212L172.398 126.314C169.424 144.042 157.156 158.847 140.215 165.152L100.852 179.802C83.9111 186.107 64.8717 182.954 50.9054 171.531L18.4533 144.988C4.48704 133.565 -2.28421 115.607 0.690195 97.8788L7.60156 56.6856C10.576 38.9575 22.8441 24.1526 39.7848 17.8478L79.1483 3.19766Z" fill="url(#paint0_linear)"/>
<path fill-rule="evenodd" clip-rule="evenodd" d="M69.2471 65C65.7969 65 63 67.7969 63 71.2471C63 74.6972 65.7969 77.4941 69.2471 77.4941C72.6972 77.4941 75.4941 74.6972 75.4941 71.2471C75.4941 67.7969 72.6972 65 69.2471 65ZM87.0353 65C83.5852 65 80.7883 67.7969 80.7883 71.2471C80.7883 74.6972 83.5852 77.4941 87.0353 77.4941H110.753C114.203 77.4941 117 74.6972 117 71.2471C117 67.7969 114.203 65 110.753 65H87.0353ZM63 91.9999C63 88.5498 65.7969 85.7529 69.2471 85.7529C72.6972 85.7529 75.4941 88.5498 75.4941 91.9999C75.4941 95.4501 72.6972 98.247 69.2471 98.247C65.7969 98.247 63 95.4501 63 91.9999ZM87.0353 85.7529C83.5852 85.7529 80.7883 88.5498 80.7883 91.9999C80.7883 95.4501 83.5852 98.247 87.0353 98.247H110.753C114.203 98.247 117 95.4501 117 91.9999C117 88.5498 114.203 85.7529 110.753 85.7529H87.0353ZM63 112.753C63 109.303 65.7969 106.506 69.2471 106.506C72.6972 106.506 75.4941 109.303 75.4941 112.753C75.4941 116.203 72.6972 119 69.2471 119C65.7969 119 63 116.203 63 112.753ZM87.0353 106.506C83.5852 106.506 80.7883 109.303 80.7883 112.753C80.7883 116.203 83.5852 119 87.0353 119H110.753C114.203 119 117 116.203 117 112.753C117 109.303 114.203 106.506 110.753 106.506H87.0353Z" fill="#FF391B"/>
<defs>
<linearGradient id="paint0_linear" x1="90" y1="183" x2="125.385" y2="7.119" gradientUnits="userSpaceOnUse">
<stop stop-color="#FCFCFC"/>
<stop offset="0.670645" stop-color="#F9F9F9"/>
<stop offset="1" stop-color="#EFEFEF"/>
</linearGradient>
</defs>
</svg>
