<svg width="180" height="183" viewBox="0 0 180 183" fill="none" xmlns="http://www.w3.org/2000/svg">
<path d="M79.1483 3.19766C96.0889 -3.1072 115.128 0.0458088 129.095 11.469L161.547 38.0121C175.513 49.4353 182.284 67.3932 179.31 85.1212L172.398 126.314C169.424 144.042 157.156 158.847 140.215 165.152L100.852 179.802C83.9111 186.107 64.8717 182.954 50.9054 171.531L18.4533 144.988C4.48704 133.565 -2.28421 115.607 0.690195 97.8788L7.60156 56.6856C10.576 38.9575 22.8441 24.1526 39.7848 17.8478L79.1483 3.19766Z" fill="url(#paint0_linear)"/>
<path d="M105.752 85.9979H91.5021V91.2479C91.5021 94.9698 88.474 97.9979 84.7521 97.9979C81.0302 97.9979 78.0021 94.9698 78.0021 91.2479V79.848L71.9177 83.5042C70.1084 84.5823 69.0021 86.5417 69.0021 88.6417V93.076L61.5021 97.4073C60.0678 98.2323 59.5709 100.07 60.4053 101.504L67.9052 114.498C68.7302 115.932 70.5677 116.42 72.0021 115.595L81.6958 109.998H94.5021C97.8114 109.998 100.502 107.307 100.502 103.998H102.002C103.661 103.998 105.002 102.657 105.002 100.998V94.9979H105.752C106.999 94.9979 108.002 93.9948 108.002 92.7479V88.2479C108.002 87.0011 106.999 85.9979 105.752 85.9979ZM119.599 82.4917L112.099 69.498C111.274 68.0636 109.436 67.5761 108.002 68.4011L98.3083 73.998H88.7271C87.6021 73.998 86.5052 74.3167 85.549 74.9073L82.4083 76.8667C81.5271 77.4105 81.0021 78.3761 81.0021 79.4073V91.2479C81.0021 93.3198 82.6802 94.9979 84.7521 94.9979C86.824 94.9979 88.5021 93.3198 88.5021 91.2479V82.9979H105.752C108.649 82.9979 111.002 85.3511 111.002 88.2479V90.9198L118.502 86.5886C119.936 85.7542 120.424 83.9261 119.599 82.4917Z" fill="#FF391B"/>
<defs>
<linearGradient id="paint0_linear" x1="90" y1="183" x2="125.385" y2="7.119" gradientUnits="userSpaceOnUse">
<stop stop-color="#FCFCFC"/>
<stop offset="0.670645" stop-color="#F9F9F9"/>
<stop offset="1" stop-color="#EFEFEF"/>
</linearGradient>
</defs>
</svg>
