<svg width="180" height="183" viewBox="0 0 180 183" fill="none" xmlns="http://www.w3.org/2000/svg">
<path d="M79.1483 3.19766C96.0889 -3.1072 115.128 0.0458088 129.095 11.469L161.547 38.0121C175.513 49.4353 182.284 67.3932 179.31 85.1212L172.398 126.314C169.424 144.042 157.156 158.847 140.215 165.152L100.852 179.802C83.9111 186.107 64.8717 182.954 50.9054 171.531L18.4533 144.988C4.48704 133.565 -2.28421 115.607 0.690195 97.8788L7.60156 56.6856C10.576 38.9575 22.8441 24.1526 39.7848 17.8478L79.1483 3.19766Z" fill="url(#paint0_linear)"/>
<path d="M97.4467 109.404C96.281 109.404 95.5039 109.015 94.3382 108.627L89.6756 106.684L85.0129 108.627C84.2358 109.015 83.0701 109.404 81.9044 109.404C81.1273 109.404 80.7388 109.404 79.9617 109.015L78.5971 119.659C78.3711 121.422 80.3233 122.633 81.8021 121.647L87.3765 117.93C88.7687 117.002 90.5824 117.002 91.9746 117.93L97.4195 121.56C98.9187 122.56 100.891 121.302 100.617 119.521L99.0009 109.015C98.6123 109.404 97.8352 109.404 97.4467 109.404Z" fill="#FF391B"/>
<path d="M108.715 84.9248C108.326 84.1477 108.326 82.982 108.715 82.2049L111.046 77.5422C111.823 75.988 111.046 74.0452 109.103 73.2681L104.052 71.3253C103.275 70.9368 102.498 70.1597 102.109 69.3826L100.166 64.3313C99.7779 62.7771 98.6122 62 97.4465 62C97.058 62 96.2809 62 95.8923 62.3886L90.8411 64.7199H89.6754C89.2869 64.7199 88.8983 64.7199 88.5098 64.3313L83.4585 62.3886C83.07 62 82.2929 62 81.9043 62C80.7386 62 79.573 62.7771 78.7959 63.9428L76.8531 69.3826C76.8531 70.1597 76.076 70.9368 75.2989 71.3253L69.8591 73.2681C68.3049 73.6567 67.5278 75.5994 68.3049 77.5422L70.6362 82.5934C71.0248 83.3706 71.0248 84.5362 70.6362 85.3133L68.3049 89.976C67.5278 91.5302 68.3049 93.473 70.2476 94.2501L75.2989 96.1929C76.076 96.5814 76.8531 97.3586 77.2416 98.1357L79.1844 103.187C79.573 104.741 80.7386 105.518 81.9043 105.518C82.2929 105.518 82.6814 105.518 83.07 105.13L88.1212 102.798C88.5098 102.798 88.8983 102.41 89.2869 102.41C89.6754 102.41 90.064 102.41 90.4525 102.798L95.5038 105.13C95.8923 105.518 96.2809 105.518 96.6694 105.518C97.8351 105.518 99.0008 104.741 99.7779 103.575L101.721 98.5242C102.109 97.7471 102.886 96.97 103.663 96.5814L108.715 94.6387C110.269 93.8616 111.435 91.9188 110.657 90.3646L108.715 84.9248ZM89.6754 99.3013C81.1272 99.3013 74.1332 92.3073 74.1332 83.7591C74.1332 75.2109 81.1272 68.2169 89.6754 68.2169C98.2236 68.2169 105.218 75.2109 105.218 83.7591C105.218 92.3073 98.2236 99.3013 89.6754 99.3013Z" fill="#FF391B"/>
<path d="M101.332 83.759C101.332 86.8505 100.104 89.8154 97.9181 92.0015C95.732 94.1875 92.7671 95.4156 89.6756 95.4156C86.584 95.4156 83.6191 94.1875 81.4331 92.0015C79.247 89.8154 78.0189 86.8505 78.0189 83.759C78.0189 80.6674 79.247 77.7025 81.4331 75.5165C83.6191 73.3304 86.584 72.1023 89.6756 72.1023C92.7671 72.1023 95.732 73.3304 97.9181 75.5165C100.104 77.7025 101.332 80.6674 101.332 83.759Z" fill="#FF391B"/>
<defs>
<linearGradient id="paint0_linear" x1="90" y1="183" x2="125.385" y2="7.119" gradientUnits="userSpaceOnUse">
<stop stop-color="#FCFCFC"/>
<stop offset="0.670645" stop-color="#F9F9F9"/>
<stop offset="1" stop-color="#EFEFEF"/>
</linearGradient>
</defs>
</svg>
