<svg width="180" height="183" viewBox="0 0 180 183" fill="none" xmlns="http://www.w3.org/2000/svg">
<path d="M79.1483 3.19766C96.0889 -3.1072 115.128 0.0458088 129.095 11.469L161.547 38.0121C175.513 49.4353 182.284 67.3932 179.31 85.1212L172.398 126.314C169.424 144.042 157.156 158.847 140.215 165.152L100.852 179.802C83.9111 186.107 64.8717 182.954 50.9054 171.531L18.4533 144.988C4.48704 133.565 -2.28421 115.607 0.690195 97.8788L7.60156 56.6856C10.576 38.9575 22.8441 24.1526 39.7848 17.8478L79.1483 3.19766Z" fill="url(#paint0_linear)"/>
<path d="M113.878 115.98C116.583 115.98 118.776 113.787 118.776 111.082C118.776 108.377 116.583 106.184 113.878 106.184C111.172 106.184 108.98 108.377 108.98 111.082C108.98 113.787 111.172 115.98 113.878 115.98Z" fill="#FF391B"/>
<path d="M78.3673 115.98C81.0724 115.98 83.2653 113.787 83.2653 111.082C83.2653 108.377 81.0724 106.184 78.3673 106.184C75.6623 106.184 73.4694 108.377 73.4694 111.082C73.4694 113.787 75.6623 115.98 78.3673 115.98Z" fill="#FF391B"/>
<path d="M117.551 100.061H79.3114L80.1282 98.7363C80.4784 98.1682 80.5812 97.4812 80.4135 96.8347L79.6163 93.7661L115.106 91.922C116.451 91.8535 117.551 90.6939 117.551 89.3469V73.1224C117.551 71.7755 116.449 70.6735 115.102 70.6735H73.6151L73.1363 68.8331C72.9999 68.3082 72.6931 67.8434 72.2641 67.5116C71.8351 67.1799 71.3081 66.9999 70.7657 67H62.449C61.7995 67 61.1766 67.258 60.7173 67.7173C60.258 68.1766 60 68.7995 60 69.449C60 70.0985 60.258 70.7214 60.7173 71.1807C61.1766 71.6399 61.7995 71.898 62.449 71.898H68.8727L75.4114 97.0551L72.84 101.224C72.6113 101.595 72.4858 102.021 72.4765 102.457C72.4673 102.892 72.5746 103.323 72.7873 103.703C72.9992 104.084 73.3091 104.401 73.6847 104.622C74.0604 104.843 74.4883 104.959 74.9241 104.959H117.551C118.201 104.959 118.823 104.701 119.283 104.242C119.742 103.783 120 103.16 120 102.51C120 101.861 119.742 101.238 119.283 100.779C118.823 100.319 118.201 100.061 117.551 100.061Z" fill="#FF391B"/>
<defs>
<linearGradient id="paint0_linear" x1="90" y1="183" x2="125.385" y2="7.119" gradientUnits="userSpaceOnUse">
<stop stop-color="#FCFCFC"/>
<stop offset="0.670645" stop-color="#F9F9F9"/>
<stop offset="1" stop-color="#EFEFEF"/>
</linearGradient>
</defs>
</svg>
